<svg xmlns="http://www.w3.org/2000/svg" viewBox="0 0 32 32" fill="none">
  <rect width="32" height="32" rx="6" fill="#1A1A1A"/>
  <!-- Dollar sign -->
  <path
    fill="#FFFFFF"
    fill-rule="evenodd"
    d="M16.75 6.5a.75.75 0 0 0-1.5 0v1.07c-1.92.2-3.5 1.3-3.5 3.18 0 1.72 1.2 2.72 3.5 3.22v5.56c-1.08-.2-1.9-.72-2.18-1.62a.75.75 0 1 0-1.44.42c.48 1.64 1.9 2.5 3.62 2.78V25a.75.75 0 0 0 1.5 0v-1.05c1.98-.22 3.6-1.35 3.6-3.3 0-1.82-1.28-2.88-3.6-3.4v-5.5c1.02.2 1.78.7 2.05 1.55a.75.75 0 1 0 1.44-.4c-.48-1.58-1.88-2.42-3.49-2.68V6.5Zm-1.5 5.72v4.08c-1.68-.38-2-1.02-2-1.72 0-.88.72-1.42 2-1.58v-.78Zm1.5 9.5v-4.18c1.78.4 2.1 1.08 2.1 1.82 0 .95-.78 1.55-2.1 1.74v.62Z"
  />
</svg>
